HIERARCHY
ROOT Hips
{
	OFFSET 0.000000 8.830580 0.000000
	CHANNELS 6 Xposition Yposition Zposition Zrotation Yrotation Xrotation 
	JOINT Spine
	{
		OFFSET 0.000000 0.010000 0.000000
		CHANNELS 3 Zrotation Yrotation Xrotation
		JOINT Spine1
		{
			OFFSET 0.000000 2.459130 0.000000
			CHANNELS 3 Zrotation Yrotation Xrotation
			JOINT Neck
			{
				OFFSET 0.000000 2.484630 0.000000
				CHANNELS 3 Zrotation Yrotation Xrotation
				JOINT Head_virtual
				{
					OFFSET 0.000000 0.000000 0.000000
					CHANNELS 3 Zrotation Yrotation Xrotation
					JOINT Head
					{
						OFFSET 0.000000 0.927525 0.000000
						CHANNELS 3 Zrotation Yrotation Xrotation
						End Site
						{
							OFFSET 0.000000 0.000000 0.000000
						}
					}
				}
				JOINT LeftUpArm_virtual
				{
					OFFSET 0.000000 0.000000 0.000000
					CHANNELS 3 Zrotation Yrotation Xrotation
					JOINT LeftUpArm
					{
						OFFSET 1.248820 0.000000 0.000000
						CHANNELS 3 Zrotation Yrotation Xrotation
						JOINT LeftForeArm
						{
							OFFSET 2.597580 0.000000 0.000000
							CHANNELS 3 Zrotation Yrotation Xrotation
							JOINT LeftHand
							{
								OFFSET 2.455420 0.000000 0.000000
								CHANNELS 3 Zrotation Yrotation Xrotation
								End Site
								{
									OFFSET 0.000000 0.000000 0.000000
								}
							}
						}
					}
				}
				JOINT RightUpArm_virtual
				{
					OFFSET -0.000000 -0.000000 -0.000000
					CHANNELS 3 Zrotation Yrotation Xrotation
					JOINT RightUpArm
					{
						OFFSET -1.248820 -0.000000 -0.000000
						CHANNELS 3 Zrotation Yrotation Xrotation
						JOINT RightForeArm
						{
							OFFSET -2.597580 -0.000000 -0.000000
							CHANNELS 3 Zrotation Yrotation Xrotation
							JOINT RightHand
							{
								OFFSET -2.455420 -0.000000 -0.000000
								CHANNELS 3 Zrotation Yrotation Xrotation
								End Site
								{
									OFFSET 0.000000 0.000000 0.000000
								}
							}
						}
					}
				}
			}
		}
	}
	JOINT LeftUpLeg
	{
		OFFSET 1.271939 0.000000 0.000000
		CHANNELS 3 Zrotation Yrotation Xrotation
		JOINT LeftLowLeg
		{
			OFFSET 0.000000 -4.342910 0.000000
			CHANNELS 3 Zrotation Yrotation Xrotation
			JOINT LeftFoot
			{
				OFFSET 0.000000 -4.487670 0.000000
				CHANNELS 3 Zrotation Yrotation Xrotation
				JOINT LeftToeBase
				{
					OFFSET 0.000000 0.000000 1.515070
					CHANNELS 3 Zrotation Yrotation Xrotation
					End Site
					{
						OFFSET 0.000000 0.000000 0.000000
					}
				}
			}
		}
	}
	JOINT RightUpLeg
	{
		OFFSET -1.271939 0.000000 0.000000
		CHANNELS 3 Zrotation Yrotation Xrotation
		JOINT RightLowLeg
		{
			OFFSET 0.000000 -4.342910 0.000000
			CHANNELS 3 Zrotation Yrotation Xrotation
			JOINT RightFoot
			{
				OFFSET 0.000000 -4.487670 0.000000
				CHANNELS 3 Zrotation Yrotation Xrotation
				JOINT RightToeBase
				{
					OFFSET 0.000000 0.000000 1.515070
					CHANNELS 3 Zrotation Yrotation Xrotation
					End Site
					{
						OFFSET 0.000000 0.000000 0.000000
					}
				}
			}
		}
	}
}
MOTION
Frames: 8
Frame Time: 0.041667
-19.192736 9.187971 46.034611 -175.638748 -9.668875 -172.093902 -1.180133 1.312488 -9.299191 -0.759152 2.002610 13.771177 0.000000 0.000000 0.000000 19.058677 -18.294025 -12.239546 2.843385 23.437594 -48.978693 -16.541401 3.125820 3.812820 -38.836300 -20.378401 20.177601 -180.000000 -82.324898 180.000000 25.194000 11.072700 8.072590 17.150801 3.931440 8.697390 5.055790 42.282101 5.624740 0.000000 89.141197 0.000000 -13.053300 1.705580 -8.241050 3.836729 -3.723187 -12.926453 0.000000 0.000000 11.547800 10.499444 -0.514605 7.084647 0.000000 0.000000 -35.207199 2.810343 -13.329833 -5.285085 0.000000 0.000000 5.342930 10.019251 -9.241000 9.669060 0.000000 0.000000 -26.032000 
-19.205238 9.185783 46.030932 -175.642026 -9.845412 -172.053143 -1.335004 1.057645 -9.257711 -0.763237 1.795044 14.109067 0.000000 0.000000 0.000000 18.775907 -18.139511 -12.907046 3.572364 23.390280 -48.842627 -16.687599 3.255870 3.735530 -38.480000 -20.285900 19.648600 180.000000 -81.895699 -180.000000 25.507799 11.252800 7.693200 17.166000 3.787840 8.378360 5.442340 40.090698 6.798790 -180.000000 88.399803 -180.000000 -5.369660 5.505040 -9.239670 3.880648 -4.533512 -13.114360 0.000000 0.000000 11.824300 10.530602 0.027480 7.057671 0.000000 0.000000 -35.111500 2.767557 -13.654333 -5.164748 0.000000 0.000000 5.139780 10.071605 -9.126285 9.693125 0.000000 0.000000 -26.053200 
-19.219199 9.182950 46.029610 -175.642851 -10.164134 -171.845365 -1.468690 0.863103 -9.195693 -0.748769 1.638786 14.095385 0.000000 0.000000 0.000000 18.355200 -18.046752 -13.381349 4.381657 23.153407 -48.732279 -16.848301 3.174600 3.609520 -38.232899 -20.016500 19.408701 -180.000000 -81.434998 180.000000 25.723200 11.335600 7.412170 17.160000 3.587330 8.274540 5.581110 37.413300 8.619850 -180.000000 85.801697 -180.000000 -0.578399 4.987980 -9.891940 3.942411 -5.371610 -13.523710 0.000000 0.000000 12.117300 10.549820 0.465721 7.016623 0.000000 0.000000 -35.009199 2.786147 -14.247566 -5.239603 0.000000 0.000000 4.987610 10.095882 -8.893598 9.697214 0.000000 0.000000 -26.022100 
-19.235155 9.180034 46.028159 -175.650118 -10.585351 -171.592530 -1.650968 0.648493 -9.232526 -0.602088 1.480436 14.180033 0.000000 0.000000 0.000000 17.813502 -18.003379 -14.039324 5.444250 22.741492 -48.453292 -17.196301 3.348340 3.970050 -37.756802 -20.571600 18.997400 180.000000 -81.133102 -180.000000 25.848301 11.327300 7.114700 17.007200 3.392220 8.057060 5.653550 34.585400 10.261700 -180.000000 84.441299 -180.000000 4.666310 4.620370 -9.994080 3.996558 -6.177030 -14.009382 0.000000 0.000000 12.430700 10.612051 0.808945 6.981119 0.000000 0.000000 -34.963400 2.813070 -14.942210 -5.373681 0.000000 0.000000 4.895940 10.157326 -8.649096 9.675369 0.000000 0.000000 -26.061000 
-19.251730 9.177529 46.026441 -175.644061 -11.087960 -171.350974 -1.901593 0.362255 -9.300368 -0.267955 1.275926 14.310223 0.000000 0.000000 0.000000 16.900567 -17.862924 -14.568560 6.658622 22.216294 -48.276566 -17.547899 3.440370 4.121780 -37.559502 -20.928301 18.726299 -180.000000 -80.815399 180.000000 25.797001 11.326100 7.100190 16.659201 3.213490 7.822480 5.657710 31.904600 11.581300 180.000000 84.526398 180.000000 10.158800 4.157630 -9.769920 4.049594 -6.861052 -14.510568 0.000000 0.000000 12.753200 10.717923 0.983155 6.949059 0.000000 0.000000 -34.971901 2.869447 -15.847299 -5.464901 0.000000 0.000000 4.739830 10.135019 -8.305234 9.731596 0.000000 0.000000 -26.069500 
-19.269314 9.175544 46.025893 -175.620124 -11.573726 -171.111981 -2.054637 0.275637 -9.235258 -0.092965 1.236584 14.195475 0.000000 0.000000 0.000000 16.393774 -17.945657 -15.058294 7.722614 21.674509 -48.150678 -17.712601 3.080000 3.712320 -37.747398 -20.560301 19.021299 180.000000 -80.387199 -180.000000 25.607300 11.271500 7.200800 16.356600 2.630010 7.501130 5.815680 29.575800 12.756000 180.000000 86.032799 180.000000 14.894000 3.293590 -8.809760 4.082846 -7.332501 -15.007981 0.000000 0.000000 13.063500 10.850443 0.999979 6.907837 0.000000 0.000000 -35.017599 2.914956 -16.417649 -5.603352 0.000000 0.000000 4.668540 10.226215 -8.199621 9.740582 0.000000 0.000000 -26.082500 
-19.288006 9.174276 46.025923 -175.594857 -12.072912 -170.898733 -2.215026 0.110169 -9.206487 0.087840 1.121881 14.141067 0.000000 0.000000 0.000000 15.760388 -17.928368 -15.360803 8.618666 21.220806 -48.105693 -17.950100 2.944500 3.653210 -37.790501 -20.637100 19.072700 180.000000 -80.064201 -180.000000 25.487301 11.296600 6.968720 15.969600 2.129780 7.057570 5.958290 27.763901 13.728600 -180.000000 88.927200 -180.000000 18.596600 2.081230 -7.593420 4.113023 -7.803566 -15.432422 0.000000 0.000000 13.271500 10.964731 0.990828 6.907628 0.000000 0.000000 -35.057600 2.943979 -16.844934 -5.737171 0.000000 0.000000 4.644650 10.295113 -8.259247 9.729609 0.000000 0.000000 -26.090500 
-19.307765 9.173530 46.026349 -175.590029 -12.579560 -170.688560 -2.372892 -0.119751 -9.159130 0.194017 0.940724 14.026329 0.000000 0.000000 0.000000 15.160355 -17.862513 -15.537001 9.377207 20.866427 -48.091540 -18.147100 2.911470 3.633240 -37.902302 -20.721800 19.121901 180.000000 -79.780998 -180.000000 25.465401 11.388200 6.831480 15.603000 1.702640 6.519360 6.065730 26.528999 14.671000 0.000000 87.157097 0.000000 20.609600 0.286811 -5.843370 4.103283 -8.184800 -15.804326 0.000000 0.000000 13.389800 11.103914 0.891683 6.945105 0.000000 0.000000 -35.104300 2.950761 -17.312332 -5.873575 0.000000 0.000000 4.638040 10.351583 -8.295391 9.729611 0.000000 0.000000 -26.116200 
